<?xml version="1.0" standalone="no"?>
<!DOCTYPE svg PUBLIC "-//W3C//DTD SVG 20010904//EN" "http://www.w3.org/TR/2001/REC-SVG-20010904/DTD/svg10.dtd">
<svg version="1.0" xmlns="http://www.w3.org/2000/svg" width="64.000000pt" height="64.000000pt" viewBox="0 0 64.000000 64.000000" preserveAspectRatio="xMidYMid meet">
	<g transform="translate(0.000000,64.000000) scale(0.100000,-0.100000)" fill="rgb(255, 255, 255, 0.250)" stroke="none">
		<path d="M261 629 c-70 -15 -128 -47 -175 -100 -37 -41 -75 -119 -76 -151 0
-4 41 -8 91 -8 91 0 92 0 125 34 37 38 78 51 124 41 17 -4 46 -22 64 -41 33
-34 20 -34 126 -34 l92 0 -7 28 c-38 156 -207 263 -364 231z" />
		<path d="M283 400 c-55 -23 -67 -105 -22 -146 30 -27 93 -25 121 4 30 29 31
94 3 122 -24 23 -72 33 -102 20z" />
		<path d="M10 272 c0 -41 34 -115 75 -160 93 -104 235 -134 369 -78 78 33 159
136 173 221 l6 35 -94 0 -94 0 -15 -32 c-18 -35 -71 -68 -110 -68 -39 0 -92
33 -110 68 l-15 32 -92 0 c-83 0 -93 -2 -93 0z" />
	</g>
</svg>
